<svg xmlns="http://www.w3.org/2000/svg" viewBox="0 0 512 512" width="512" height="512" aria-labelledby="title">
	<title>Capnote Icon</title>
	<defs>
		<linearGradient id="g" x1="0" x2="1" y1="0" y2="1">
			<stop offset="0" stop-color="#7c3aed"/>
			<stop offset="1" stop-color="#4f46e5"/>
		</linearGradient>
		<filter id="s" x="-20%" y="-20%" width="140%" height="140%">
			<feDropShadow dx="0" dy="8" stdDeviation="18" flood-color="#000" flood-opacity="0.18"/>
		</filter>
	</defs>

	<!-- Background rounded square -->
	<rect x="24" y="24" width="464" height="464" rx="64" fill="url(#g)" filter="url(#s)" />

	<!-- Notepad sheet -->
	<g transform="translate(104,96)">
		<rect x="0" y="0" width="304" height="320" rx="18" fill="#ffffff" opacity="0.98"/>
		<!-- Folded corner -->
		<path d="M264 0 L304 40 L264 40 Z" fill="#f3f4ff" opacity="0.9"/>

		<!-- Horizontal lines -->
		<g fill="#eef2ff" opacity="0.95">
			<rect x="24" y="56" width="256" height="10" rx="5" />
			<rect x="24" y="96" width="232" height="10" rx="5" />
			<rect x="24" y="136" width="200" height="10" rx="5" />
		</g>

		<!-- Capnote monogram circle -->
		<g transform="translate(24,200)">
			<circle cx="44" cy="44" r="44" fill="#7c3aed"/>
			<path d="M28 44c0-12 10-22 24-22 7 0 12 2 16 6l-8 10c-2-2-4-4-8-4-8 0-12 6-12 10 0 6 6 10 14 10 6 0 10-2 14-6v12c-4 4-10 8-20 8-14 0-20-10-20-24z" fill="#fff"/>
		</g>
	</g>

</svg>